<svg width="24" height="24" fill="#FFF" xmlns="http://www.w3.org/2000/svg">
  <path d="M21.14 0H2.86A2.86 2.86 0 0 0 0 2.86v18.28A2.86 2.86 0 0 0 2.86 24h18.28A2.86 2.86 0 0 0 24 21.14V2.86A2.86 2.86 0 0 0 21.14 0ZM7.43 9.14V20H4V9.14h3.43ZM4 5.98c0-.8.69-1.4 1.71-1.4 1.03 0 1.68.6 1.72 1.4 0 .8-.64 1.45-1.72 1.45C4.7 7.43 4 6.78 4 5.98ZM20 20h-3.43v-5.71c0-1.15-.57-2.29-2-2.31h-.04c-1.39 0-1.96 1.17-1.96 2.3V20H9.14V9.14h3.43v1.47s1.1-1.47 3.32-1.47c2.27 0 4.11 1.56 4.11 4.72V20Z" fill="#000"/>
</svg>
